<svg class="svg-icon" style="width: 1em; height: 1em;vertical-align: middle;fill: currentColor;overflow: hidden;" viewBox="0 0 1024 1024" version="1.1" xmlns="http://www.w3.org/2000/svg"><path d="M603.6224 381.60384c-9.52832-109.95712-102.14912-196.54144-214.68672-196.54144-112.52224 0-205.12768 86.55872-214.68672 196.49024C78.08 382.1056 0 460.41088 0 556.6208c0 96.54784 78.62784 175.104 175.26784 175.104h425.216c96.64512 0 175.27296-78.55104 175.27296-175.104 0-95.50336-76.93312-173.33248-172.1344-175.01696z m-3.13856 306.3808h-425.216c-72.49408 0-131.47648-58.9312-131.47648-131.36896 0-72.42752 58.97728-131.35872 131.47648-131.35872h16.92672c6.84032 0 12.87168-3.19488 16.89088-8.10496 4.89984-4.00896 8.09472-10.02496 8.09472-16.8448 0-94.57664 77.05088-171.51488 171.75552-171.51488 94.70976 0 171.75552 76.93824 171.75552 171.51488 0 0.52736 0.11776 1.024 0.1536 1.54112-0.03584 0.51712-0.1536 1.01376-0.1536 1.54112a21.88288 21.88288 0 0 0 21.89824 21.86752h17.8944c72.4992 0 131.47648 58.9312 131.47648 131.35872 0.00512 72.43776-58.97728 131.36896-131.47648 131.36896z m251.38176-461.14816c-9.52832-109.95712-102.14912-196.54144-214.68672-196.54144-69.31456 0-134.84544 33.62816-175.2832 89.95328a21.85728 21.85728 0 0 0 5.03808 30.52032 21.92384 21.92384 0 0 0 30.55616-5.03296c32.23552-44.90752 84.4544-71.71072 139.69408-71.71072 94.70976 0 171.75552 76.93824 171.75552 171.51488 0 0.52736 0.11776 1.024 0.1536 1.54112-0.03584 0.51712-0.1536 1.01376-0.1536 1.54112a21.87776 21.87776 0 0 0 21.89824 21.86752h17.8944c72.4992 0 131.47648 58.9312 131.47648 131.35872 0 72.43776-58.97728 131.36384-131.47648 131.36384-12.09344 0-21.89824 9.78944-21.89824 21.86752s9.8048 21.86752 21.89824 21.86752c96.64512 0 175.27296-78.55104 175.27296-175.09888-0.00512-95.49824-76.94336-173.32736-172.13952-175.01184zM161.1264 849.7408c6.95808-12.86656 6.17472-53.46304 5.51424-70.31808-0.18432-4.67456-5.74976-7.7312-9.84576-5.31456-14.47936 8.704-48.896 30.33088-55.84384 43.19744a33.85344 33.85344 0 0 0-2.67264 25.99424 33.86368 33.86368 0 0 0 16.512 20.25984 34.26304 34.26304 0 0 0 16.22016 4.10624 34.16576 34.16576 0 0 0 30.11584-17.92512z m-97.02912 50.4064c-14.45888 8.6784-48.86016 30.27456-55.84896 43.1872-8.94976 16.5632-2.7392 37.31968 13.84448 46.27456a34.18112 34.18112 0 0 0 46.33088-13.82912c6.95808-12.86144 6.17472-53.46304 5.51424-70.3232-0.18432-4.68992-5.81632-7.72608-9.84064-5.30944z m470.73792-53.05344c6.95808-12.86656 6.17472-53.46304 5.51936-70.31808-0.18944-4.68992-5.82656-7.72096-9.84064-5.30432-14.46912 8.68864-48.8704 30.27968-55.84896 43.1872-8.95488 16.5632-2.74432 37.31968 13.84448 46.26944a34.176 34.176 0 0 0 46.32576-13.83424z m-97.02912 50.4064c-14.47424 8.704-48.88576 30.31552-55.84896 43.1872-8.94976 16.5632-2.74432 37.31968 13.8496 46.26944a34.18112 34.18112 0 0 0 46.32576-13.82912c6.96832-12.89216 6.17984-53.48352 5.51936-70.31808-0.1792-4.67456-5.81632-7.72608-9.84576-5.30944z m-157.79328-50.4064c6.95808-12.86656 6.17472-53.46304 5.51936-70.31808-0.18944-4.68992-5.8112-7.72096-9.84064-5.30432-14.46912 8.68864-48.8704 30.27968-55.84896 43.1872-8.95488 16.5632-2.74432 37.31968 13.84448 46.26944a34.29376 34.29376 0 0 0 16.20992 4.10112 34.16576 34.16576 0 0 0 30.11584-17.93536z m-97.024 50.4064c-14.47424 8.704-48.88576 30.31552-55.84896 43.1872-8.94976 16.5632-2.7392 37.31968 13.8496 46.26944a34.18112 34.18112 0 0 0 46.32576-13.82912c6.97344-12.89216 6.17984-53.48352 5.51936-70.31808-0.17408-4.67456-5.82144-7.72608-9.84576-5.30944z m220.45696-50.4064c6.97344-12.89728 6.17984-53.47328 5.51936-70.31808-0.1792-4.66944-5.71904-7.74656-9.84064-5.31456-14.47424 8.704-48.88576 30.32576-55.84896 43.19744a34.1504 34.1504 0 0 0 30.06464 50.36032 34.1504 34.1504 0 0 0 30.1056-17.92512z m-97.024 50.4064c-14.46912 8.68864-48.87552 30.28992-55.84384 43.1872-8.95488 16.5632-2.74432 37.31968 13.84448 46.26944a34.2016 34.2016 0 0 0 46.33088-13.83424c6.95808-12.86656 6.17472-53.46304 5.51936-70.31808-0.19456-4.67968-5.83168-7.71072-9.85088-5.30432z m352.55296-127.27296c-14.47424 8.704-48.88576 30.31552-55.84896 43.1872-8.95488 16.5632-2.74432 37.31968 13.84448 46.26944a34.18112 34.18112 0 0 0 46.33088-13.82912c6.95808-12.87168 6.17472-53.47328 5.51936-70.3232-0.18944-4.67968-5.81632-7.71584-9.84576-5.30432z m-92.6976 126.0288c-14.47936 8.704-48.896 30.33088-55.84384 43.19744a33.87392 33.87392 0 0 0-2.67776 25.99424 33.91488 33.91488 0 0 0 16.52224 20.27008 34.29888 34.29888 0 0 0 16.21504 4.10112 34.16064 34.16064 0 0 0 30.11072-17.93024c6.9632-12.87168 6.17984-53.46304 5.51936-70.31808-0.18944-4.69504-5.81632-7.7312-9.84576-5.31456z"  /></svg>